<svg width="54" height="16" viewBox="0 0 54 16" fill="none" xmlns="http://www.w3.org/2000/svg">
<path d="M47.692 0.0665367C42.1107 0.859165 44.0768 4.87942 44.0768 4.87942C43.0792 2.25242 48.0641 1.46767 47.2675 5.61001C46.4692 9.75236 37.9602 6.04227 37.9602 6.04227L37.9524 6.05999C37.601 5.86602 37.2461 5.67598 36.8731 5.51254C33.4384 4.00211 29.8696 4.13504 26.9934 5.54995C24.1164 4.13504 20.5485 4.0031 17.1129 5.51254C16.746 5.675 16.3962 5.86307 16.0482 6.05211L16.043 6.04128C16.043 6.04128 7.53398 9.75138 6.73567 5.60903C5.93735 1.46668 10.9232 2.25143 9.92463 4.87843C9.92463 4.87843 11.8925 0.858181 6.30944 0.0655526C0.727254 -0.726091 -2.03806 5.79217 1.73696 12.0653C5.04193 17.5595 14.3476 16.1023 18.5703 14.772C18.6554 14.7464 18.7405 14.7129 18.8255 14.6834C19.305 14.5259 19.7252 14.3713 20.032 14.2315C23.1806 12.848 25.5979 10.3471 26.99 7.43158C28.383 10.3461 30.8003 12.8471 33.9488 14.2315C34.027 14.2669 34.1061 14.2876 34.1834 14.3211C34.412 14.4156 34.6784 14.515 34.9817 14.6204C35.1639 14.6814 35.3452 14.7484 35.5274 14.8006C39.7931 16.1229 48.9802 17.5182 52.2611 12.0662C56.0387 5.79316 53.2742 -0.725107 47.692 0.0665367Z" fill="#8162FF"/>
</svg>
