<svg width="16" height="16" viewBox="0 0 16 16" fill="none" xmlns="http://www.w3.org/2000/svg">
<path d="M4.36353 8.72718C4.36353 7.76276 4.74664 6.83784 5.42859 6.15589C6.11054 5.47394 7.03547 5.09082 7.99989 5.09082C8.96431 5.09082 9.88924 5.47394 10.5712 6.15589C11.2531 6.83784 11.6363 7.76276 11.6363 8.72718V12.3635C11.6363 13.7352 11.6363 14.4203 11.2101 14.8465C10.7839 15.2726 10.0988 15.2726 8.72716 15.2726H7.27262C5.90098 15.2726 5.21589 15.2726 4.78971 14.8465C4.36353 14.4203 4.36353 13.7352 4.36353 12.3635V8.72718Z" stroke="white" stroke-width="1.2" stroke-linecap="round" stroke-linejoin="round"/>
<path d="M6.54534 5.09118V4.3639C6.54534 3.67808 6.54534 3.33554 6.75843 3.12245C6.97153 2.90936 7.31407 2.90936 7.99989 2.90936M7.99989 2.90936C8.68571 2.90936 9.02825 2.90936 9.24134 3.12245C9.45443 3.33554 9.45443 3.67808 9.45443 4.3639V5.09118M7.99989 2.90936V0.727539M7.99989 0.727539H6.54534M7.99989 0.727539H9.99625C10.5469 0.727679 11.0772 0.936036 11.4806 1.31081L11.6363 1.45481M4.36353 8.72754H11.6363" stroke="white" stroke-width="1.2" stroke-linecap="round" stroke-linejoin="round"/>
<rect x="4" y="9" width="8" height="6" rx="1" fill="white"/>
</svg>
