<svg width="115" height="40" viewBox="0 0 115 40" fill="none" xmlns="http://www.w3.org/2000/svg">
<path d="M62.6 39.1L55.74 39V23.14L62.3 23.04C63.5267 23.0133 64.4533 23.2933 65.08 23.88C65.72 24.4533 66.04 25.3067 66.04 26.44V28.46C66.04 29.6067 65.62 30.4133 64.78 30.88C65.3267 31.0933 65.7333 31.42 66 31.86C66.2667 32.2867 66.4 32.8533 66.4 33.56V35.66C66.4 36.7667 66.0733 37.62 65.42 38.22C64.78 38.82 63.84 39.1133 62.6 39.1ZM63.14 25.2H58.26V29.9H63.14C63.3667 29.9 63.48 29.7933 63.48 29.58V25.52C63.48 25.3067 63.3667 25.2 63.14 25.2ZM63.52 31.98H58.26V36.92H63.52C63.7333 36.92 63.84 36.8133 63.84 36.6V32.3C63.84 32.0867 63.7333 31.98 63.52 31.98ZM71.5263 39.18C70.5263 39.18 69.7929 38.9867 69.3263 38.6C68.8729 38.2 68.6463 37.4933 68.6463 36.48V34.68C68.6463 33.6133 68.8863 32.8733 69.3663 32.46C69.8596 32.0333 70.6729 31.82 71.8063 31.82H74.9463V29.04C74.9463 28.8667 74.8596 28.78 74.6863 28.78L69.3863 28.8V26.74H74.1463C75.2929 26.7267 76.1196 26.9467 76.6263 27.4C77.1329 27.84 77.3863 28.6133 77.3863 29.72V39H75.2063L75.0063 37.62C74.8996 38.14 74.6663 38.5333 74.3063 38.8C73.9596 39.0533 73.4596 39.18 72.8063 39.18H71.5263ZM74.9463 37.22V33.58H71.3063C71.1329 33.58 71.0463 33.6667 71.0463 33.84V36.94C71.0463 37.1267 71.1329 37.22 71.3063 37.22H74.9463ZM85.6113 26.58V28.54H82.5913C82.4046 28.54 82.3113 28.6333 82.3113 28.82L82.3313 39H79.9313L79.8913 26.76H82.0513L82.2313 28C82.4979 27.0533 83.2379 26.58 84.4513 26.58H85.6113ZM87.022 39V22.16H89.442V27.92C89.7087 27.0267 90.422 26.58 91.582 26.58H92.982C93.9954 26.58 94.7354 26.78 95.202 27.18C95.6687 27.58 95.902 28.2867 95.902 29.3V36.26C95.902 37.34 95.6554 38.0933 95.162 38.52C94.682 38.9333 93.8687 39.1333 92.722 39.12L87.022 39ZM89.442 28.82V37.06L93.222 37.1C93.3954 37.1 93.482 37.0067 93.482 36.82V28.82C93.482 28.6333 93.3954 28.54 93.222 28.54H89.722C89.5354 28.54 89.442 28.6333 89.442 28.82ZM101.588 39.14C100.374 39.14 99.4945 38.9067 98.9478 38.44C98.4145 37.9733 98.1478 37.1867 98.1478 36.08V29.5C98.1478 28.3933 98.3811 27.6333 98.8478 27.22C99.3145 26.7933 100.114 26.58 101.248 26.58H103.708C104.854 26.58 105.668 26.7933 106.148 27.22C106.641 27.6333 106.888 28.3933 106.888 29.5V34.28H100.588V36.84C100.588 37.0133 100.674 37.1 100.848 37.1H106.568V39.14H101.588ZM100.848 28.54C100.674 28.54 100.588 28.6333 100.588 28.82V32.52H104.468V28.82C104.468 28.6333 104.381 28.54 104.208 28.54H100.848ZM114.947 26.58V28.54H111.927C111.741 28.54 111.647 28.6333 111.647 28.82L111.667 39H109.267L109.227 26.76H111.387L111.567 28C111.834 27.0533 112.574 26.58 113.787 26.58H114.947Z" fill="white"/>
<path d="M10.08 32.26H4.26V39H1.74V23.14H10.54V25.32H4.26V30.1H10.08V32.26ZM12.5361 39V22.16H14.9761V39H12.5361ZM17.6434 29.62C17.6434 28.5133 17.9101 27.7333 18.4434 27.28C18.9768 26.8133 19.8501 26.58 21.0634 26.58H23.2434C24.4701 26.58 25.3501 26.8133 25.8834 27.28C26.4168 27.7333 26.6834 28.5133 26.6834 29.62V36.14C26.6834 37.2467 26.4168 38.0333 25.8834 38.5C25.3501 38.9533 24.4701 39.18 23.2434 39.18H21.0634C19.8501 39.18 18.9768 38.9533 18.4434 38.5C17.9101 38.0333 17.6434 37.2467 17.6434 36.14V29.62ZM20.3634 28.6C20.1768 28.6 20.0834 28.6933 20.0834 28.88V36.88C20.0834 37.0667 20.1768 37.16 20.3634 37.16H23.9834C24.1568 37.16 24.2434 37.0667 24.2434 36.88V28.88C24.2434 28.6933 24.1568 28.6 23.9834 28.6H20.3634ZM32.0125 39.18C30.9992 39.18 30.2592 39 29.7925 38.64C29.3392 38.28 29.1125 37.5933 29.1125 36.58V26.76H31.5325V36.94C31.5325 37.1267 31.6192 37.22 31.7925 37.22H34.9925C35.1658 37.22 35.2525 37.1267 35.2525 36.94V26.76H37.6325V36.94C37.6325 37.1267 37.7192 37.22 37.8925 37.22H41.1125C41.2858 37.22 41.3725 37.1267 41.3725 36.94L41.3525 26.76H43.7725L43.7925 36.48C43.7925 37.4933 43.5592 38.2 43.0925 38.6C42.6392 38.9867 41.9058 39.18 40.8925 39.18H39.0525C37.6258 39.18 36.7525 38.6867 36.4325 37.7C36.1125 38.6867 35.2458 39.18 33.8325 39.18H32.0125Z" fill="white"/>
<path d="M47.692 0.0665367C42.1107 0.859165 44.0768 4.87942 44.0768 4.87942C43.0792 2.25242 48.0641 1.46767 47.2675 5.61001C46.4692 9.75236 37.9602 6.04227 37.9602 6.04227L37.9524 6.05999C37.601 5.86602 37.2461 5.67598 36.8731 5.51254C33.4384 4.00211 29.8696 4.13504 26.9934 5.54995C24.1164 4.13504 20.5485 4.0031 17.1129 5.51254C16.746 5.675 16.3962 5.86307 16.0482 6.05211L16.043 6.04128C16.043 6.04128 7.53398 9.75138 6.73567 5.60903C5.93735 1.46668 10.9232 2.25143 9.92463 4.87843C9.92463 4.87843 11.8925 0.858181 6.30944 0.0655526C0.727254 -0.726091 -2.03806 5.79217 1.73696 12.0653C5.04193 17.5595 14.3476 16.1023 18.5703 14.772C18.6554 14.7464 18.7405 14.7129 18.8255 14.6834C19.305 14.5259 19.7252 14.3713 20.032 14.2315C23.1806 12.848 25.5979 10.3471 26.99 7.43158C28.383 10.3461 30.8003 12.8471 33.9488 14.2315C34.027 14.2669 34.1061 14.2876 34.1834 14.3211C34.412 14.4156 34.6784 14.515 34.9817 14.6204C35.1639 14.6814 35.3452 14.7484 35.5274 14.8006C39.7931 16.1229 48.9802 17.5182 52.2611 12.0662C56.0387 5.79316 53.2742 -0.725107 47.692 0.0665367Z" fill="#8162FF"/>
</svg>
